<svg version="1.1" xmlns="http://www.w3.org/2000/svg">
       <defs>
       </defs>
            <symbol id="account-login" viewBox="0 0 512 512">
                <path d="M437.02,330.98c-27.883-27.882-61.071-48.523-97.281-61.018C378.521,243.251,404,198.548,404,148
                            C404,66.393,337.607,0,256,0S108,66.393,108,148c0,50.548,25.479,95.251,64.262,121.962
                            c-36.21,12.495-69.398,33.136-97.281,61.018C26.629,379.333,0,443.62,0,512h40c0-119.103,96.897-216,216-216s216,96.897,216,216
                            h40C512,443.62,485.371,379.333,437.02,330.98z M256,256c-59.551,0-108-48.448-108-108S196.449,40,256,40
                            c59.551,0,108,48.448,108,108S315.551,256,256,256z"></path>
            </symbol>

            <symbol id="search-icon" viewBox="0 0 16 16">
                <path fill-rule="evenodd" d="M6.732 12.228c-3.146 0-5.696-2.505-5.696-5.601S3.586 1.02 6.732 1.02s5.696 2.51 5.696 5.607c0 3.096-2.55 5.601-5.696 5.601zm9.116 2.9l-4.13-4.065a6.526 6.526 0 0 0 1.745-4.436C13.463 2.966 10.45 0 6.732 0S0 2.966 0 6.627c0 3.656 3.014 6.621 6.732 6.621 1.606 0 3.08-.555 4.237-1.48l4.147 4.081c.202.2.53.2.732 0a.503.503 0 0 0 0-.72z"></path>
            </symbol>

            <symbol id="facebook-icon" viewBox="0 0 9 16">
                   <path  fill-rule="evenodd"
                         d="M8.341.003L6.262 0C3.927 0 2.417 1.546 2.417 3.938v1.815H.327A.326.326 0 0 0 0 6.08V8.71c0 .18.147.326.326.326h2.09v6.638c0 .18.147.326.328.326H5.47c.181 0 .328-.146.328-.326V9.036h2.444c.18 0 .326-.146.326-.326l.002-2.63a.33.33 0 0 0-.328-.327H5.798V4.214c0-.74.177-1.115 1.142-1.115h1.4c.181 0 .327-.147.327-.327V.33A.327.327 0 0 0 8.34.003z"></path>
            </symbol>

           <symbol id="twitter-icon" viewBox="0 0 512 512">
                <path style="fill:#fff;" d="M512,97.248c-19.04,8.352-39.328,13.888-60.48,16.576c21.76-12.992,38.368-33.408,46.176-58.016
                    c-20.288,12.096-42.688,20.64-66.56,25.408C411.872,60.704,384.416,48,354.464,48c-58.112,0-104.896,47.168-104.896,104.992
                    c0,8.32,0.704,16.32,2.432,23.936c-87.264-4.256-164.48-46.08-216.352-109.792c-9.056,15.712-14.368,33.696-14.368,53.056
                    c0,36.352,18.72,68.576,46.624,87.232c-16.864-0.32-33.408-5.216-47.424-12.928c0,0.32,0,0.736,0,1.152
                    c0,51.008,36.384,93.376,84.096,103.136c-8.544,2.336-17.856,3.456-27.52,3.456c-6.72,0-13.504-0.384-19.872-1.792
                    c13.6,41.568,52.192,72.128,98.08,73.12c-35.712,27.936-81.056,44.768-130.144,44.768c-8.608,0-16.864-0.384-25.12-1.44
                    C46.496,446.88,101.6,464,161.024,464c193.152,0,298.752-160,298.752-298.688c0-4.64-0.16-9.12-0.384-13.568
                    C480.224,136.96,497.728,118.496,512,97.248z"/>
           </symbol>

            <symbol id="pinterest-icon"  viewBox="0 0 511.977 511.977" >
                    <path d="M262.948,0C122.628,0,48.004,89.92,48.004,187.968c0,45.472,25.408,102.176,66.08,120.16
                c6.176,2.784,9.536,1.6,10.912-4.128c1.216-4.352,6.56-25.312,9.152-35.2c0.8-3.168,0.384-5.92-2.176-8.896
                c-13.504-15.616-24.224-44.064-24.224-70.752c0-68.384,54.368-134.784,146.88-134.784c80,0,135.968,51.968,135.968,126.304
                c0,84-44.448,142.112-102.208,142.112c-31.968,0-55.776-25.088-48.224-56.128c9.12-36.96,27.008-76.704,27.008-103.36
                c0-23.904-13.504-43.68-41.088-43.68c-32.544,0-58.944,32.224-58.944,75.488c0,27.488,9.728,46.048,9.728,46.048
                S144.676,371.2,138.692,395.488c-10.112,41.12,1.376,107.712,2.368,113.44c0.608,3.168,4.16,4.16,6.144,1.568
                c3.168-4.16,42.08-59.68,52.992-99.808c3.968-14.624,20.256-73.92,20.256-73.92c10.72,19.36,41.664,35.584,74.624,35.584
                c98.048,0,168.896-86.176,168.896-193.12C463.62,76.704,375.876,0,262.948,0z"/>
            </symbol>

           <symbol id="arrow" viewBox="0 0 12 7">
               <path d="M11.03 0.32L6.03 5.32 0.97 0.26 0.26 0.97 6.03 6.74 11.74 1.03z"/>
           </symbol>

           <!--           <symbol id="arrow-left" viewBox="0 0 511.991 511.991">-->
<!--               <path d="M153.433,255.991L381.037,18.033c4.063-4.26,3.917-11.01-0.333-15.083c-4.229-4.073-10.979-3.896-15.083,0.333-->
<!--			L130.954,248.616c-3.937,4.125-3.937,10.625,0,14.75L365.621,508.7c2.104,2.188,4.896,3.292,7.708,3.292-->
<!--			c2.646,0,5.313-0.979,7.375-2.958c4.25-4.073,4.396-10.823,0.333-15.083L153.433,255.991z"/>-->
<!--           </symbol>-->

           <symbol id="arrow-right" viewBox="0 0 58 17">
               <path fill-rule="evenodd" d="M52.268 9.99l-4.89 4.889L49.5 17 58 8.5l-1.063-1.063L49.509.009l-2.125 2.125 4.85 4.85H.993V9.99h51.275z"></path>
           </symbol>
           <symbol id="arrow-left" viewBox="0 0 58 17">
                <path fill-rule="evenodd" d="M5.732 9.99l4.89 4.889L8.5 17 0 8.5l1.063-1.063L8.491.009l2.125 2.125-4.85 4.85h51.241V9.99H5.732z"></path>
           </symbol>

           <symbol id="close-icon" viewBox="0 0 413.348 413.348">
               <path d="m413.348 24.354-24.354-24.354-182.32 182.32-182.32-182.32-24.354 24.354 182.32 182.32-182.32 182.32 24.354 24.354 182.32-182.32 182.32 182.32 24.354-24.354-182.32-182.32z"/>
           </symbol>


           <symbol id="like-icon" viewBox="0 -28 512.001 512">
               <path d="m256 455.515625c-7.289062 0-14.316406-2.640625-19.792969-7.4375-20.683593-18.085937-40.625-35.082031-58.21875-50.074219l-.089843-.078125c-51.582032-43.957031-96.125-81.917969-127.117188-119.3125-34.644531-41.804687-50.78125-81.441406-50.78125-124.742187 0-42.070313 14.425781-80.882813 40.617188-109.292969 26.503906-28.746094 62.871093-44.578125 102.414062-44.578125 29.554688 0 56.621094 9.34375 80.445312 27.769531 12.023438 9.300781 22.921876 20.683594 32.523438 33.960938 9.605469-13.277344 20.5-24.660157 32.527344-33.960938 23.824218-18.425781 50.890625-27.769531 80.445312-27.769531 39.539063 0 75.910156 15.832031 102.414063 44.578125 26.191406 28.410156 40.613281 67.222656 40.613281 109.292969 0 43.300781-16.132812 82.9375-50.777344 124.738281-30.992187 37.398437-75.53125 75.355469-127.105468 119.308594-17.625 15.015625-37.597657 32.039062-58.328126 50.167969-5.472656 4.789062-12.503906 7.429687-19.789062 7.429687zm-112.96875-425.523437c-31.066406 0-59.605469 12.398437-80.367188 34.914062-21.070312 22.855469-32.675781 54.449219-32.675781 88.964844 0 36.417968 13.535157 68.988281 43.882813 105.605468 29.332031 35.394532 72.960937 72.574219 123.476562 115.625l.09375.078126c17.660156 15.050781 37.679688 32.113281 58.515625 50.332031 20.960938-18.253907 41.011719-35.34375 58.707031-50.417969 50.511719-43.050781 94.136719-80.222656 123.46875-115.617188 30.34375-36.617187 43.878907-69.1875 43.878907-105.605468 0-34.515625-11.605469-66.109375-32.675781-88.964844-20.757813-22.515625-49.300782-34.914062-80.363282-34.914062-22.757812 0-43.652344 7.234374-62.101562 21.5-16.441406 12.71875-27.894532 28.796874-34.609375 40.046874-3.453125 5.785157-9.53125 9.238282-16.261719 9.238282s-12.808594-3.453125-16.261719-9.238282c-6.710937-11.25-18.164062-27.328124-34.609375-40.046874-18.449218-14.265626-39.34375-21.5-62.097656-21.5zm0 0"/>
           </symbol>

           <symbol id="liked-icon" viewBox="0 -28 512.00002 512">
                <path d="m471.382812 44.578125c-26.503906-28.746094-62.871093-44.578125-102.410156-44.578125-29.554687 0-56.621094 9.34375-80.449218 27.769531-12.023438 9.300781-22.917969 20.679688-32.523438 33.960938-9.601562-13.277344-20.5-24.660157-32.527344-33.960938-23.824218-18.425781-50.890625-27.769531-80.445312-27.769531-39.539063 0-75.910156 15.832031-102.414063 44.578125-26.1875 28.410156-40.613281 67.222656-40.613281 109.292969 0 43.300781 16.136719 82.9375 50.78125 124.742187 30.992188 37.394531 75.535156 75.355469 127.117188 119.3125 17.613281 15.011719 37.578124 32.027344 58.308593 50.152344 5.476563 4.796875 12.503907 7.4375 19.792969 7.4375 7.285156 0 14.316406-2.640625 19.785156-7.429687 20.730469-18.128907 40.707032-35.152344 58.328125-50.171876 51.574219-43.949218 96.117188-81.90625 127.109375-119.304687 34.644532-41.800781 50.777344-81.4375 50.777344-124.742187 0-42.066407-14.425781-80.878907-40.617188-109.289063zm0 0"/>
           </symbol>

           <symbol id="arrow-btn"  viewBox="0 0 10 17">
               <path d="M1.12 16.93L0.41 16.22 8.18 8.46 0.49 0.78 1.2 0.07 9.59 8.46z"/>
           </symbol>

           <symbol id="newsletter-icon" viewBox="0 0 17.6 12.6">
               <g id="Layer_15" transform="translate(-40.9 -102.4)">
                   <path id="Path_18" d="M58.4 104.1c-.1-.3-.2-.5-.3-.8a2.138 2.138 0 0 0-1.8-.9H43.1a2.138 2.138 0 0 0-1.8.9 1.135 1.135 0 0 0-.3.8c0 .2-.1.3-.1.5v8.2a2.22 2.22 0 0 0 2.2 2.2h13.2a2.22 2.22 0 0 0 2.2-2.2v-8.2a4.332 4.332 0 0 0-.1-.5zm-15.3-.9h13.2a1.231 1.231 0 0 1 1 .5l-7.4 4.4a.3.3 0 0 1-.4 0l-7.4-4.4a1.231 1.231 0 0 1 1-.5zm14.5 9.5a1.324 1.324 0 0 1-1.3 1.3H43.1a1.324 1.324 0 0 1-1.3-1.3v-8.2l7.3 4.4a1.275 1.275 0 0 0 1.2 0l7.3-4.4z"/>
               </g>
           </symbol>

           <symbol id="next-icon" viewBox="0 0 13 6.27">
               <path id="Path_2"  d="M12.86 2.814L10.248.2a.523.523 0 0 0-.8 0 .486.486 0 0 0 0 .7l1.808 1.809H.5a.461.461 0 0 0-.5.4.475.475 0 0 0 .5.5h10.75L9.444 5.426a.5.5 0 1 0 .7.7l2.612-2.613a.431.431 0 0 0 .1-.7z" transform="translate(0 -.011)"/>
           </symbol>

           <symbol id="more-top-menu" viewBox="0 0 3.859 6.4">
               <path id="Path_21" d="M.2.2a.608.608 0 0 0 0 .8l2.7 2.7a.608.608 0 0 0 .8 0L6.3 1a.608.608 0 0 0 0-.8.6.6 0 0 0-.8 0L3.2 2.4 1 .2A.494.494 0 0 0 .3.1a.1.1 0 0 0-.1.1z" transform="rotate(-90 3.23 3.22)"/>
           </symbol>

            <symbol id="whatsapp-icon" viewBox="0 0 24 24">
                <path d="M.057 24l1.687-6.163c-1.041-1.804-1.588-3.849-1.587-5.946.003-6.556 5.338-11.891 11.893-11.891 3.181.001 6.167 1.24 8.413 3.488 2.245 2.248 3.481 5.236 3.48 8.414-.003 6.557-5.338 11.892-11.893 11.892-1.99-.001-3.951-.5-5.688-1.448l-6.305 1.654zm6.597-3.807c1.676.995 3.276 1.591 5.392 1.592 5.448 0 9.886-4.434 9.889-9.885.002-5.462-4.415-9.89-9.881-9.892-5.452 0-9.887 4.434-9.889 9.884-.001 2.225.651 3.891 1.746 5.634l-.999 3.648 3.742-.981zm11.387-5.464c-.074-.124-.272-.198-.57-.347-.297-.149-1.758-.868-2.031-.967-.272-.099-.47-.149-.669.149-.198.297-.768.967-.941 1.165-.173.198-.347.223-.644.074-.297-.149-1.255-.462-2.39-1.475-.883-.788-1.48-1.761-1.653-2.059-.173-.297-.018-.458.13-.606.134-.133.297-.347.446-.521.151-.172.2-.296.3-.495.099-.198.05-.372-.025-.521-.075-.148-.669-1.611-.916-2.206-.242-.579-.487-.501-.669-.51l-.57-.01c-.198 0-.52.074-.792.372s-1.04 1.016-1.04 2.479 1.065 2.876 1.213 3.074c.149.198 2.095 3.2 5.076 4.487.709.306 1.263.489 1.694.626.712.226 1.36.194 1.872.118.571-.085 1.758-.719 2.006-1.413.248-.695.248-1.29.173-1.414z"/>
            </symbol>

            <symbol id="mail-share" viewBox="0 0 21 16">
                <g>
                    <polygon points="10.5,8.18 20.98,1.75 20.98,0.39 0.02,0.39 0.02,1.75 	"/>
                    <polygon points="10.5,9.41 0.02,2.98 0.02,15.61 20.98,15.61 20.98,2.98 	"/>
                </g>
            </symbol>


            <symbol id="messenger-icon" viewBox="0 0 512.2 512.2">
                <path d="M301.601,251.2c-5.7,2.999-12.601,2.401-17.401-2.1L229.3,198.7c-16.8,17.699-33.6,35.7-50.7,54   c12.9-6.899,23.701-13.2,29.401-16.5c0.298-0.3,0.298-0.3,0.298-0.3c3.001-2.701,6.601-3.9,10.201-3.9c3.9,0,7.8,1.5,10.499,4.501   c13.837,14.944,30.152,29.824,53.701,50.999l50.4-52.798C322.301,240.1,311.8,245.8,301.601,251.2z M301.601,251.2   c-5.7,2.999-12.601,2.401-17.401-2.1L229.3,198.7c-16.8,17.699-33.6,35.7-50.7,54c12.9-6.899,23.701-13.2,29.401-16.5   c0.298-0.3,0.298-0.3,0.298-0.3c3.001-2.701,6.601-3.9,10.201-3.9c3.9,0,7.8,1.5,10.499,4.501   c13.837,14.944,30.152,29.824,53.701,50.999l50.4-52.798C322.301,240.1,311.8,245.8,301.601,251.2z M301.601,251.2   c-5.7,2.999-12.601,2.401-17.401-2.1L229.3,198.7c-16.8,17.699-33.6,35.7-50.7,54c12.9-6.899,23.701-13.2,29.401-16.5   c0.298-0.3,0.298-0.3,0.298-0.3c3.001-2.701,6.601-3.9,10.201-3.9c3.9,0,7.8,1.5,10.499,4.501   c13.837,14.944,30.152,29.824,53.701,50.999l50.4-52.798C322.301,240.1,311.8,245.8,301.601,251.2z M301.601,251.2   c-5.7,2.999-12.601,2.401-17.401-2.1L229.3,198.7c-16.8,17.699-33.6,35.7-50.7,54c12.9-6.899,23.701-13.2,29.401-16.5   c0.298-0.3,0.298-0.3,0.298-0.3c3.001-2.701,6.601-3.9,10.201-3.9c3.9,0,7.8,1.5,10.499,4.501   c13.837,14.944,30.152,29.824,53.701,50.999l50.4-52.798C322.301,240.1,311.8,245.8,301.601,251.2z M301.601,251.2   c-5.7,2.999-12.601,2.401-17.401-2.1L229.3,198.7c-16.8,17.699-33.6,35.7-50.7,54c12.9-6.899,23.701-13.2,29.401-16.5   c0.298-0.3,0.298-0.3,0.298-0.3c3.001-2.701,6.601-3.9,10.201-3.9c3.9,0,7.8,1.5,10.499,4.501   c13.837,14.944,30.152,29.824,53.701,50.999l50.4-52.798C322.301,240.1,311.8,245.8,301.601,251.2z M301.601,251.2   c-5.7,2.999-12.601,2.401-17.401-2.1L229.3,198.7c-16.8,17.699-33.6,35.7-50.7,54c12.9-6.899,23.701-13.2,29.401-16.5   c0.298-0.3,0.298-0.3,0.298-0.3c3.001-2.701,6.601-3.9,10.201-3.9c3.9,0,7.8,1.5,10.499,4.501   c13.837,14.944,30.152,29.824,53.701,50.999l50.4-52.798C322.301,240.1,311.8,245.8,301.601,251.2z M301.601,251.2   c-5.7,2.999-12.601,2.401-17.401-2.1L229.3,198.7c-16.8,17.699-33.6,35.7-50.7,54c12.9-6.899,23.701-13.2,29.401-16.5   c0.298-0.3,0.298-0.3,0.298-0.3c3.001-2.701,6.601-3.9,10.201-3.9c3.9,0,7.8,1.5,10.499,4.501   c13.837,14.944,30.152,29.824,53.701,50.999l50.4-52.798C322.301,240.1,311.8,245.8,301.601,251.2z M301.601,251.2   c-5.7,2.999-12.601,2.401-17.401-2.1L229.3,198.7c-16.8,17.699-33.6,35.7-50.7,54c12.9-6.899,23.701-13.2,29.401-16.5   c0.298-0.3,0.298-0.3,0.298-0.3c3.001-2.701,6.601-3.9,10.201-3.9c3.9,0,7.8,1.5,10.499,4.501   c13.837,14.944,30.152,29.824,53.701,50.999l50.4-52.798C322.301,240.1,311.8,245.8,301.601,251.2z M256.3,0.1   C96.7,0.1,0,121.9,0,239.499C0,304,31.3,362.2,91.3,412.3c0,118.621-0.3,18.027-0.3,84.8c0,5.4,2.701,10.199,7.5,12.9   c3.906,2.789,10.481,2.709,14.7,0.3c44.274-24.352,56.106-36.052,76.201-46.101c22.798,5.101,45.298,7.5,66.899,7.5   c139.499,0,255.9-105.899,255.9-235.8C512.2,90.1,378.1,0.1,256.3,0.1z M416.8,190.299L294.401,318.7   c-3.001,2.999-6.901,4.499-10.801,4.499c-3.6,0-7.5-1.199-10.199-3.898l-16.201-14.702c-13.799-12.299-27.9-24.899-41.1-38.399   c-30.3,17.1-100.499,54-103.799,55.499c-6.301,3.3-14.401,1.201-18.6-4.499c-4.2-6-3.9-14.101,1.199-19.2   c37.345-38.971,77.082-82.46,122.699-130.8c5.7-5.7,15-6,21-0.601l58.2,53.101c19.456-10.538,70.404-35.548,102.001-53.101   c6.599-3.3,14.7-1.8,19.2,4.2C422.5,176.8,421.901,184.899,416.8,190.299z M284.2,249.1L229.3,198.7   c-16.8,17.699-33.6,35.7-50.7,54c12.9-6.899,23.701-13.2,29.401-16.5c0.298-0.3,0.298-0.3,0.298-0.3   c3.001-2.701,6.601-3.9,10.201-3.9c3.9,0,7.8,1.5,10.499,4.501c13.837,14.944,30.152,29.824,53.701,50.999l50.4-52.798   c-10.8,5.4-21.301,11.1-31.5,16.5C295.901,254.199,288.999,253.6,284.2,249.1z M301.601,251.2c-5.7,2.999-12.601,2.401-17.401-2.1   L229.3,198.7c-16.8,17.699-33.6,35.7-50.7,54c12.9-6.899,23.701-13.2,29.401-16.5c0.298-0.3,0.298-0.3,0.298-0.3   c3.001-2.701,6.601-3.9,10.201-3.9c3.9,0,7.8,1.5,10.499,4.501c13.837,14.944,30.152,29.824,53.701,50.999l50.4-52.798   C322.301,240.1,311.8,245.8,301.601,251.2z M301.601,251.2c-5.7,2.999-12.601,2.401-17.401-2.1L229.3,198.7   c-16.8,17.699-33.6,35.7-50.7,54c12.9-6.899,23.701-13.2,29.401-16.5c0.298-0.3,0.298-0.3,0.298-0.3   c3.001-2.701,6.601-3.9,10.201-3.9c3.9,0,7.8,1.5,10.499,4.501c13.837,14.944,30.152,29.824,53.701,50.999l50.4-52.798   C322.301,240.1,311.8,245.8,301.601,251.2z M301.601,251.2c-5.7,2.999-12.601,2.401-17.401-2.1L229.3,198.7   c-16.8,17.699-33.6,35.7-50.7,54c12.9-6.899,23.701-13.2,29.401-16.5c0.298-0.3,0.298-0.3,0.298-0.3   c3.001-2.701,6.601-3.9,10.201-3.9c3.9,0,7.8,1.5,10.499,4.501c13.837,14.944,30.152,29.824,53.701,50.999l50.4-52.798   C322.301,240.1,311.8,245.8,301.601,251.2z M301.601,251.2c-5.7,2.999-12.601,2.401-17.401-2.1L229.3,198.7   c-16.8,17.699-33.6,35.7-50.7,54c12.9-6.899,23.701-13.2,29.401-16.5c0.298-0.3,0.298-0.3,0.298-0.3   c3.001-2.701,6.601-3.9,10.201-3.9c3.9,0,7.8,1.5,10.499,4.501c13.837,14.944,30.152,29.824,53.701,50.999l50.4-52.798   C322.301,240.1,311.8,245.8,301.601,251.2z M301.601,251.2c-5.7,2.999-12.601,2.401-17.401-2.1L229.3,198.7   c-16.8,17.699-33.6,35.7-50.7,54c12.9-6.899,23.701-13.2,29.401-16.5c0.298-0.3,0.298-0.3,0.298-0.3   c3.001-2.701,6.601-3.9,10.201-3.9c3.9,0,7.8,1.5,10.499,4.501c13.837,14.944,30.152,29.824,53.701,50.999l50.4-52.798   C322.301,240.1,311.8,245.8,301.601,251.2z M301.601,251.2c-5.7,2.999-12.601,2.401-17.401-2.1L229.3,198.7   c-16.8,17.699-33.6,35.7-50.7,54c12.9-6.899,23.701-13.2,29.401-16.5c0.298-0.3,0.298-0.3,0.298-0.3   c3.001-2.701,6.601-3.9,10.201-3.9c3.9,0,7.8,1.5,10.499,4.501c13.837,14.944,30.152,29.824,53.701,50.999l50.4-52.798   C322.301,240.1,311.8,245.8,301.601,251.2z"/>
            </symbol>
</svg>
