<svg xmlns="http://www.w3.org/2000/svg" width="300" height="108" viewBox="0 0 300 108">
    <path fill="#1A1918" fill-rule="nonzero" d="M111.048 106.628c10.51 0 18.294-8.283 18.589-27.015H131V108H85v-1.372h8.065V1.39H85V0h28.938v1.39h-8.08v105.238h5.19zm84.999 0c10.511 0 18.294-8.283 18.59-27.015H216V108h-46v-1.372h8.063V1.39H170V0h28.937v1.39h-8.064v105.238h5.174zm-171.687 0c9.249 0 19.411-6.91 19.411-26.849H45V108H0v-1.372h7.09V1.39H0V0h44.834v26.7h-1.229c0-18.4-9.398-25.31-18.034-25.31h-5.545v50.927h1.86c7.704 0 11.092-10.126 11.092-20.094h1.229v40.81h-1.23c0-11.664-3.852-19.325-11.092-19.325h-1.859v52.92h4.334zm274.411-27.591H300V107h-45v-1.36h7.092V1.376H255V0h44.851v26.455h-1.245c0-18.239-9.384-25.08-18.034-25.08h-5.528V51.83h1.842c7.705 0 11.092-10.033 11.092-19.911h1.244v40.436h-1.244c0-11.549-3.852-19.15-11.092-19.15h-1.842v52.436h4.316c9.25 0 19.411-6.83 19.411-26.603z"/>
</svg>
